<svg xmlns="http://www.w3.org/2000/svg" width="97.381" height="97.956" viewBox="0 0 97.381 97.956"><g opacity="0.19"><path d="M48.566,78.65c22.081-29.442,4.907-72.786-32.3-78.1C14.627.139,13.4,1.775,13.4,3V22.221a2.592,2.592,0,0,0,2.045,2.453c15.948,4.089,24.126,22.9,15.539,37.211a2.475,2.475,0,0,0,.409,3.271L44.886,78.65a2.109,2.109,0,0,0,3.68,0Z" transform="translate(39.02 -0.484)" fill="#6d44ff"/><path d="M.648,41.96C.239,43.6,1.875,44.822,3.1,44.822H22.321a2.592,2.592,0,0,0,2.453-2.045A25.059,25.059,0,0,1,42.766,24.786a2.592,2.592,0,0,0,2.045-2.453V3.113A2.3,2.3,0,0,0,41.948.66,48.576,48.576,0,0,0,.648,41.96Z" transform="translate(-0.569 -0.187)" fill="#efebff"/><path d="M78.353,48.566a2.627,2.627,0,0,0,.409-3.68L65.268,31.392A3.087,3.087,0,0,0,62,30.983,25.162,25.162,0,0,1,24.786,15.445,2.592,2.592,0,0,0,22.332,13.4H3.113A2.3,2.3,0,0,0,.66,16.262C5.976,53.473,48.911,71.057,78.353,48.566Z" transform="translate(-0.581 39.414)" fill="#6d44ff"/></g></svg>