<svg xmlns="http://www.w3.org/2000/svg" width="2472.619" height="901.785" viewBox="0 0 2472.619 901.785">
  <path id="Path_10" data-name="Path 10" d="M3.6,427.645C119.663,336.45,311.862,199.732,535.084,162.966c209.036-34.43,351.157-23.951,691.6,102.213,313.554,116.2,574.848,463.726,802.786,231.325C2163,360.353,2373.962,420.186,2472,381.38m-4.2-9.29C2370.822,410,2163.39,352.141,2030.524,485.351c-228.979,229.572-489.261-107.356-798.013-213.874C897.039,156.42,747.334,147.3,541.674,180.942,315.893,217.059,120.026,344.5,3.519,431.5m2460.074-68.7c-95.909,37.01-299.835-18.879-432.011,111.4-230.045,226.743-489.29-99.589-793.239-196.422C907.837,173.825,750.669,166.759,548.264,198.918,320.057,235.175,120.388,352.553,3.437,435.36m2455.952-81.849c-94.847,36.113-295.284-17.82-426.749,109.534C1801.5,686.956,1543.58,370.38,1244.172,284.073c-325.256-93.759-490.238-98.239-689.318-67.18-230.7,35.993-434.1,143.711-551.5,222.324m2451.831-95c-93.782,35.215-290.753-16.769-421.488,107.673C1801.442,672.966,1544.662,366.709,1250,290.372c-320.233-82.963-492.809-85.487-688.559-55.5C328.237,270.591,121.113,368.656,3.275,443.074M2450.983,334.931c-92.72,34.318-286.243-15.729-416.228,105.809-233.4,218.233-489.03-77.7-778.92-144.07C940.6,224.5,760.45,223.913,568.034,252.846,332.321,288.288,121.476,376.707,3.193,446.933M2446.779,325.641c-91.655,33.419-281.751-14.7-410.966,103.946-234.571,215.387-489.043-70.221-774.147-126.619C951.416,241.6,763.7,242.918,574.624,270.821,336.4,305.977,121.838,384.759,3.112,450.79M2442.575,316.351c-90.59,32.522-277.28-13.685-405.7,102.082C1801.1,630.967,1547.791,355.7,1267.495,309.266,962.2,258.692,766.946,261.9,581.214,288.8,340.476,323.658,122.2,392.81,3.03,454.648M2438.372,307.062c-89.527,31.624-272.831-12.679-400.444,100.219-237,209.672-489.138-55.243-764.6-91.717-300.361-39.77-503.138-34.7-685.521-8.79C344.548,341.329,122.563,400.861,2.949,458.505m2431.22-160.733c-88.464,30.726-268.4-11.687-395.183,98.356-238.258,206.8-489.22-47.743-759.829-74.266C983.7,292.9,773.425,299.807,594.393,324.749,348.616,358.99,122.926,408.913,2.867,462.363m2427.1-173.88c-87.4,29.828-263.991-10.708-389.922,96.492-239.545,203.917-489.325-40.231-755.056-56.813-290.577-18.134-508.329-9.433-684,14.564-248.3,33.918-477.694,74.239-598.2,123.5M2425.762,279.192c-86.336,28.931-259.6-9.741-384.66,94.63-240.864,201.019-489.455-32.705-750.284-39.364-285.726-7.294-510.93,3.172-683.244,26.242C356.742,394.283,123.651,425.016,2.7,470.078m-.081,3.857c121.39-40.868,358.176-62.023,611.541-95.259,168.95-22.163,401.584-34.356,682.485-37.92,255.9-3.247,503.3,220.02,745.51,21.912,124.166-101.557,294.127-64.733,379.4-92.767M2.542,477.794c121.834-36.675,362.312-48.264,618.212-81.141,165.583-21.273,405.626-35.152,681.726-49.6,250.955-13.131,497.146,199.64,740.737,4.461,123.253-98.758,289.929-63.768,374.138-90.9M2.461,481.651c122.277-32.481,366.444-34.518,624.883-67.023,162.212-20.4,409.644-35.92,680.966-61.275,245.987-22.988,490.962,179.243,735.964-12.99,122.32-95.974,285.733-62.8,368.877-89.04M2.379,485.508c122.722-28.287,370.574-20.786,631.555-52.9,158.839-19.549,413.644-36.658,680.207-72.953,241-32.816,484.745,158.822,731.192-30.441C2166.7,236,2326.867,267.373,2408.948,242.034M2.3,489.366C125.464,465.273,377,482.3,640.524,450.58c155.462-18.71,417.627-37.36,679.447-84.631,236-42.611,478.495,138.379,726.419-47.892,120.4-90.457,277.337-60.873,358.354-85.314M2.216,493.224c123.609-19.9,378.82,6.632,644.9-24.668,152.085-17.889,421.6-38.023,678.688-96.309,231-52.37,472.21,117.911,721.646-65.343,119.4-87.723,273.139-59.906,353.092-83.449M2.135,497.082C126.188,481.375,385.074,517.4,653.7,486.532c148.7-17.086,425.563-38.646,677.93-107.987,225.982-62.092,465.891,97.413,716.871-82.794,118.394-85.009,268.943-58.942,347.832-81.588M2.054,500.939c124.5-11.512,387.055,33.98,658.24,3.569,145.319-16.3,429.529-39.227,677.169-119.664,220.97-71.775,459.543,76.884,712.1-100.246,117.365-82.313,264.747-57.975,342.572-79.724M1.973,504.8c124.94-7.32,391.167,47.625,664.911,17.686,141.932-15.522,433.5-39.764,676.409-131.342,215.962-81.419,453.156,56.322,707.326-117.7,116.317-79.636,260.55-57.01,337.312-77.861M1.891,508.654c125.385-3.124,395.278,61.251,671.583,31.807,138.545-14.764,437.487-40.26,675.651-143.02,210.967-91.026,446.735,35.721,702.553-135.148,115.25-76.979,256.351-56.044,332.048-76M1.81,512.512c125.829,1.07,399.384,74.85,678.254,45.924,135.155-14.019,441.492-40.715,674.892-154.7,205.989-100.6,440.28,15.08,697.78-152.6,114.167-74.343,252.154-55.079,326.787-74.134M1.728,516.369C128,521.633,405.214,604.8,686.654,576.412c131.763-13.29,445.522-41.134,674.131-166.377,201.033-110.134,433.79-5.606,693.008-170.05,113.068-71.729,247.958-54.114,321.527-72.27M1.647,520.227c126.716,9.456,407.585,101.975,691.6,74.161,128.369-12.572,449.582-41.518,673.373-178.054,196.1-119.643,427.263-26.34,688.233-187.5,111.954-69.137,243.76-53.149,316.266-70.409M1.566,524.085c127.16,13.65,411.682,115.5,698.268,88.279,124.974-11.869,453.678-41.873,672.614-189.732,191.2-129.128,420.7-47.125,683.46-204.951,110.822-66.567,239.563-52.184,311-68.544M1.485,527.943c127.6,17.844,415.775,128.984,704.94,102.4C828,619.161,1164.234,588.134,1378.278,428.93c186.336-138.594,414.108-67.967,678.687-222.4,109.678-64.02,235.365-51.219,305.744-66.682M1.4,531.8C129.451,553.837,421.27,674.236,713.013,648.316,831.2,637.815,1175,605.8,1384.108,435.229c181.5-148.046,407.48-88.869,673.916-239.854,108.518-61.5,231.168-50.252,300.482-64.818M1.321,535.658C129.814,561.89,425.277,691.51,719.6,666.291c114.785-9.835,466.193-42.822,670.335-224.765,176.7-157.486,400.816-109.835,669.142-257.3,107.349-59,226.97-49.287,295.22-62.955M1.24,539.516C130.176,569.941,429.28,708.743,726.194,684.267c111.386-9.181,470.444-43.117,669.576-236.442,171.937-166.923,394.118-130.873,664.369-274.756,106.167-56.523,222.773-48.321,289.96-61.091M1.159,543.373C130.539,577.992,433.28,725.93,732.784,702.244c107.986-8.542,474.735-43.411,668.817-248.12,167.2-176.36,387.389-151.986,659.6-292.208,104.975-54.074,218.576-47.356,284.7-59.228M1.078,547.23c129.823,38.814,436.2,195.839,738.3,172.989,104.587-7.911,479.06-43.705,668.057-259.8,162.5-185.8,380.629-173.179,654.823-309.657,103.773-51.653,214.378-46.391,279.438-57.366M1,551.087c130.267,43.007,440.277,209.065,744.968,187.108,101.187-7.293,483.421-44.008,667.3-271.476,157.83-195.246,373.837-194.458,650.05-327.109,102.566-49.257,210.181-45.426,274.176-55.5M.914,554.945c130.712,47.2,444.352,222.229,751.639,201.226,97.789-6.685,487.813-44.32,666.539-283.154,153.183-204.7,367.018-215.831,645.278-344.56C2165.72,81.569,2270.354,84,2333.285,74.818M.833,558.8c131.155,51.4,448.424,235.329,758.31,215.344,94.389-6.088,492.232-44.643,665.78-294.832,148.561-214.168,360.172-237.3,640.5-362.011,100.133-44.547,201.785-43.494,263.654-51.776M.752,562.661c131.6,55.588,452.492,248.353,764.982,229.462,90.991-5.5,496.676-44.979,665.019-306.509,143.961-223.648,353.3-258.874,635.732-379.462,98.912-42.232,197.589-42.529,258.393-49.912M.671,566.518C132.714,626.3,457.232,827.813,772.324,810.1c87.593-4.924,501.142-45.333,664.26-318.187C1575.962,258.77,1782.994,211.353,2067.542,95c97.691-39.946,193.391-41.563,253.131-48.049M.589,570.375c132.487,63.976,460.628,274.144,778.324,257.7,84.2-4.359,505.628-45.7,663.5-329.865,134.811-242.65,339.5-302.36,626.185-414.365,96.471-37.689,189.2-40.6,247.871-46.185M.509,574.234C133.439,642.4,465.2,861.121,785.5,846.05c80.8-3.8,510.128-46.085,662.742-341.542C1578.5,252.335,1780.818,180.22,2069.657,72.693c95.254-35.462,185-39.634,242.61-44.324M.426,578.091C133.8,650.455,469.188,877.6,792.093,864.026c77.41-3.254,514.643-46.488,661.983-353.221,125.715-261.712,325.634-346.344,616.64-449.266,94.043-33.261,180.8-38.668,237.348-42.461M.345,581.949C134.164,658.506,473.174,893.95,798.684,882c74.021-2.717,519.493-46.771,661.223-364.9,121.459-271.15,318.688-368.54,611.866-466.717,92.841-31.09,176.6-37.7,232.086-40.6M.264,585.806c134.262,80.752,476.9,324.337,805.01,314.172,70.634-2.188,523.7-47.341,660.464-376.576,116.656-280.833,311.741-390.879,607.093-484.169C2164.479,10.286,2245.236,2.5,2299.656.5" transform="translate(0.251 0.499)" fill="none" stroke="#efebff" stroke-miterlimit="10" stroke-width="2" stroke-dasharray="2 8"/>
</svg>
