<svg xmlns="http://www.w3.org/2000/svg" width="1287.711" height="1345.266" viewBox="0 0 1287.711 1345.266"><path d="M1042.165,903.334H.866L521.515,1l520.65,902.334H.866L521.515,1ZM540.269,46.809,49.214,897.849h982.109L540.269,46.809,49.214,897.849h982.109Zm18.752,45.807L97.563,892.365h922.916L559.021,92.615,97.563,892.365h922.916Zm18.753,45.809L145.912,886.881h863.725L577.774,138.425,145.912,886.881h863.725Zm18.753,45.808L194.26,881.4H998.794L596.527,184.232,194.26,881.4H998.794Zm18.753,45.809L242.609,875.914H987.951L615.28,230.041,242.609,875.914H987.951Zm18.752,45.808L290.957,870.43H977.108L634.033,275.848,290.957,870.43H977.108Zm18.753,45.809L339.305,864.946h626.96L652.786,321.657,339.305,864.946h626.96Zm18.753,45.808-283.884,492H955.424l-283.884-492-283.884,492H955.424Zm18.752,45.809L436,853.978H944.581l-254.289-440.7L436,853.978H944.581Zm18.753,45.808L484.351,848.494H933.738L709.045,459.081,484.351,848.494H933.738ZM727.8,504.889,532.7,843.011H922.9L727.8,504.889,532.7,843.011H922.9ZM746.551,550.7l-165.5,286.83h331L746.551,550.7l-165.5,286.83h331ZM765.3,596.505,629.4,832.043H901.21L765.3,596.505,629.4,832.043H901.21Zm18.753,45.808L677.746,826.559H890.367L784.056,642.313,677.746,826.559H890.367Z" transform="matrix(0.469, -0.883, 0.883, 0.469, 0, 920.942)" fill="none" stroke="#fff" stroke-miterlimit="10" stroke-width="1" stroke-dasharray="2 6"/></svg>