<svg xmlns="http://www.w3.org/2000/svg" width="2985.656" height="2168.865" viewBox="0 0 2985.656 2168.865"><path d="M80.128,754.119c49.5-108.5,414-151,782-65s251-371,424-536c454.4-433.39,1308,130,826,767s599,608,599,608m-33,13.714s-334.915-9.632-509.477-126.68c-134.475-90.17-203.765-239.356-12.6-508.474,47.626-67.049,77.927-134.012,95.78-198.074,83.926-301.149-91.494-545.243-344.737-638.273-206.409-75.825-416.853-52.419-619.176,117.787-193.072,162.749-87.408,570.762-435.456,475.189-11.59-3.182-23.1-6.548-34.709-9.471C476.56,567.914,142.674,608.491,74.414,712.262m2570.714,843.286s-322.513-28.293-459.055-155.013c-105.308-97.732-159.63-245.661,13.892-507.3a546.392,546.392,0,0,0,81.809-198.747C2340.2,396.337,2164.487,169.86,1905.555,89.7,1690.439,23.1,1513.613,55.083,1289.7,223.119c-213.144,160.5-118.951,518.928-446.912,414.379-11.264-3.591-22.355-7.652-33.663-10.986C482.36,530.171,157.324,567.847,68.7,670.405m2543.429,898.857s-309.531-46.248-408.634-183.345c-75.743-104.78-115.76-252.348,40.39-506.12,41.5-67.441,60.677-135.621,67.835-199.42,33.095-294.932-143.257-503.776-407.7-571.309-223.969-57.2-367.03-16.815-612.534,149.051C1058.269,416.364,1140.9,724.555,833.116,611.687c-10.946-4.014-21.6-8.745-32.616-12.5C488.21,492.737,171.975,527.2,62.985,628.548m2516.143,954.428s-296.4-63.032-358.213-211.677c-46.137-110.943-72.206-259.426,66.887-504.943,38.392-67.766,52.114-136.359,53.864-200.093,8-291.519-169.367-482.674-439.182-537.827-232.935-47.613-342.118.986-609.213,164.683-253.288,155.993-182.235,413.229-469.826,292.758-10.635-4.455-20.85-9.83-31.57-14.014-297.8-116.23-605.25-85.3-734.6,14.827m2488.857,1010s-283.988-78.656-307.791-240.008c-17.148-116.236-29.023-266.9,93.385-503.766,35.235-68.185,43.608-137.068,39.889-200.768C2354.8,364.177,2176.042,190.819,1900.947,147.8c-241.979-37.836-317.205,18.787-605.89,180.314C1021.7,481.861,1081.22,687.388,813.775,560.066c-10.328-4.917-20.1-10.9-30.525-15.527-283.33-125.665-581.975-98.624-731.693.294M2513.128,1610.405s-272.957-93.906-257.37-268.342c10.834-121.252,13.732-274.745,119.882-502.588,32.005-68.7,35.17-137.761,25.918-201.441-41.314-284.364-221.828-439.753-502.146-470.861-251.073-27.862-292.294,36.589-602.57,195.946-293.432,151.49-245.3,304.528-492.738,171.137-10.02-5.4-19.346-11.965-29.478-17.042C505.7,382.466,215.926,405.271,45.842,502.976M2480.128,1624.119s-263.112-109.668-206.95-296.674c38.03-126.627,56.006-282.951,146.381-501.411,28.67-69.3,26.8-138.459,11.945-202.115-65.511-280.771-248.108-417.961-533.627-437.378-260.187-17.694-267.383,54.39-599.249,211.578C985.124,547.357,1022.1,647.131,794.434,508.445c-9.707-5.912-18.6-13.014-28.433-18.555C511.366,346.408,230.576,364.627,40.128,461.119m2407,1176.714s-253.822-126.264-156.527-325.006c64.9-132.576,97.736-291.473,172.877-500.233,25.194-70,18.49-139.177-2.029-202.789-89.429-277.269-274.385-395.972-565.108-403.895-269.3-7.34-242.47,72.191-595.927,227.209C966.837,580.1,993,625.868,784.763,482.635c-9.38-6.453-17.857-14.051-27.387-20.069-240.5-151.883-512.15-138.583-722.962-43.3M2414.128,1651.548s-244.6-143.558-106.107-353.339c91.77-139,138.878-300.245,199.375-499.056,21.536-70.771,10.239-139.929-16-203.462C2378.279,321.78,2190.745,229.9,1894.806,225.278c-278.368-4.351-217.559,89.993-592.607,242.841-353.648,144.735-337.844,135.8-527.107-11.295-9.034-7.021-17.123-15.075-26.34-21.583C522.169,275.266,259.877,283.339,28.7,377.4M2381.128,1665.262s-235.236-161.307-55.685-381.671c118.755-145.749,179.386-309.183,225.872-497.878,17.64-71.608,2.029-140.724-29.972-204.136C2384.713,310.839,2194.5,230.1,1893.271,244.646c-287.43,13.884-192.648,107.794-589.286,258.473C930.265,645.6,936.267,581.4,765.422,431.014c-8.659-7.623-16.4-16.088-25.295-23.1C527.21,240.12,274.527,242.7,22.985,335.548M2348.128,1678.976s-225.672-179.323-5.264-410c145.884-152.683,219.237-318.168,252.369-496.7,13.451-72.475-6.147-141.565-43.944-204.809C2391.265,299.7,2198.3,238.442,1891.735,264.015,1595.313,288.741,1724,389.61,1305.771,538.119,911.979,678.35,908.839,558.431,755.751,405.2c-8.245-8.252-15.692-17.089-24.249-24.611-199.547-175.4-442.325-178.541-714.231-86.9m2297.857,1399S2099.2,1495.2,2360.285,1254.355c173.141-159.724,258.422-327.056,278.867-495.524,8.9-73.334-14.307-142.456-57.917-205.483C2397.878,288.355,2202.17,246.906,1890.2,283.383c-305.351,35.7-142.823,143.4-582.642,289.736C893.692,711.1,882.154,535.2,746.081,379.392c-7.782-8.91-15-18.082-23.2-26.124C536.369,170.429,303.827,161.407,11.557,251.833M2282.128,1706.405s-206.023-215.724,95.579-466.668c200.5-166.825,296.961-335.666,305.363-494.347C2687,671.272,2660.614,602,2611.182,539.233,2404.51,276.822,2206.11,255.47,1888.663,302.751c-314.212,46.8-117.911,161.2-579.321,305.368C875.406,743.848,856.275,511.909,736.41,353.582c-7.26-9.59-14.323-19.067-22.157-27.639C540.431,135.761,318.478,120.763,5.842,209.976M2249.128,1720.119s-196-234,146-495,411.684-512.706,246-700c-230-260-431-261-754-203s-93,179-576,321-481.458-192.809-605.5-344.5c-161.5-197.5-372.5-218.5-705.5-130.5" transform="matrix(0.985, -0.174, 0.174, 0.985, 0.213, 474.224)" fill="none" stroke="#efebff" stroke-miterlimit="10" stroke-width="2" stroke-dasharray="2 8"/></svg>